<?xml version="1.0" encoding="utf-8"?>
<!-- Generator: Adobe Illustrator 16.0.0, SVG Export Plug-In . SVG Version: 6.00 Build 0)  -->
<!DOCTYPE svg PUBLIC "-//W3C//DTD SVG 1.1//EN" "http://www.w3.org/Graphics/SVG/1.1/DTD/svg11.dtd">
<svg version="1.1" id="Layer_1" xmlns="http://www.w3.org/2000/svg" xmlns:xlink="http://www.w3.org/1999/xlink" x="0px" y="0px"
	 width="36.184px" height="36.184px" viewBox="0 0 36.184 36.184" enable-background="new 0 0 36.184 36.184" xml:space="preserve">
<g>
	<g>
		<path fill="#FFFFFF" d="M35.581,36.184H0.603C0.27,36.184,0,35.923,0,35.602v-22.78C0,12.5,0.27,12.24,0.603,12.24h34.978
			c0.332,0,0.603,0.26,0.603,0.582v22.78C36.184,35.923,35.913,36.184,35.581,36.184z M1.207,35.02h33.771V13.403H1.207V35.02z"/>
	</g>
	<g>
		<path fill="#FFFFFF" d="M35.581,13.403H0.603C0.27,13.403,0,13.143,0,12.822V3.065c0-0.321,0.27-0.582,0.603-0.582h25.841
			c0.333,0,0.604,0.261,0.604,0.582c0,0.321-0.271,0.582-0.604,0.582H1.207v8.594h33.771V3.646h-5.711
			c-0.332,0-0.603-0.261-0.603-0.582c0-0.321,0.271-0.582,0.603-0.582h6.314c0.332,0,0.603,0.261,0.603,0.582v9.757
			C36.184,13.143,35.913,13.403,35.581,13.403z"/>
	</g>
	<g>
		<g>
			<path fill="#FFFFFF" d="M26.442,11.269c-1.73,0-3.139-1.357-3.139-3.025c0-1.668,1.408-3.026,3.139-3.026
				c1.732,0,3.139,1.357,3.139,3.026C29.581,9.911,28.175,11.269,26.442,11.269z M26.442,6.38c-1.064,0-1.931,0.835-1.931,1.863
				c0,1.027,0.866,1.862,1.931,1.862s1.933-0.835,1.933-1.862C28.375,7.216,27.507,6.38,26.442,6.38z"/>
		</g>
		<g>
			<path fill="#FFFFFF" d="M9.741,11.269c-1.731,0-3.139-1.357-3.139-3.025c0-1.668,1.407-3.026,3.139-3.026
				c1.73,0,3.139,1.357,3.139,3.026C12.88,9.911,11.471,11.269,9.741,11.269z M9.741,6.38c-1.066,0-1.932,0.835-1.932,1.863
				c0,1.027,0.866,1.862,1.932,1.862c1.065,0,1.931-0.835,1.931-1.862C11.672,7.216,10.806,6.38,9.741,6.38z"/>
		</g>
	</g>
	<g>
		<path fill="#FFFFFF" d="M26.442,8.525c-0.333,0-0.604-0.26-0.604-0.582V0.582C25.839,0.26,26.109,0,26.442,0
			c0.334,0,0.605,0.26,0.605,0.582v7.362C27.048,8.265,26.776,8.525,26.442,8.525z"/>
	</g>
	<g>
		<path fill="#FFFFFF" d="M9.741,8.525c-0.334,0-0.604-0.26-0.604-0.582V0.582C9.136,0.26,9.406,0,9.741,0
			c0.333,0,0.604,0.26,0.604,0.582v7.362C10.344,8.265,10.074,8.525,9.741,8.525z"/>
	</g>
	<g>
		<g>
			<path fill="#FFFFFF" d="M7.562,33.2c-0.333,0-0.604-0.26-0.604-0.582V15.806c0-0.321,0.27-0.582,0.604-0.582
				c0.333,0,0.603,0.26,0.603,0.582v16.812C8.165,32.94,7.895,33.2,7.562,33.2z"/>
		</g>
		<g>
			<path fill="#FFFFFF" d="M14.796,33.2c-0.333,0-0.604-0.26-0.604-0.582V15.806c0-0.321,0.27-0.582,0.604-0.582
				c0.334,0,0.604,0.26,0.604,0.582v16.812C15.401,32.94,15.131,33.2,14.796,33.2z"/>
		</g>
		<g>
			<path fill="#FFFFFF" d="M22.032,27.154c-0.334,0-0.604-0.261-0.604-0.581V15.806c0-0.321,0.271-0.582,0.604-0.582
				s0.604,0.26,0.604,0.582v10.767C22.636,26.893,22.366,27.154,22.032,27.154z"/>
		</g>
		<g>
			<path fill="#FFFFFF" d="M29.267,21.77c-0.332,0-0.603-0.26-0.603-0.581v-5.383c0-0.321,0.271-0.582,0.603-0.582
				c0.334,0,0.604,0.26,0.604,0.582v5.383C29.87,21.51,29.601,21.77,29.267,21.77z"/>
		</g>
		<g>
			<path fill="#FFFFFF" d="M32.542,19.678H3.641c-0.333,0-0.604-0.26-0.604-0.581s0.27-0.582,0.604-0.582h28.901
				c0.334,0,0.604,0.26,0.604,0.582S32.876,19.678,32.542,19.678z"/>
		</g>
		<g>
			<path fill="#FFFFFF" d="M26.442,24.821H3.641c-0.333,0-0.604-0.261-0.604-0.582s0.27-0.582,0.604-0.582h22.801
				c0.334,0,0.605,0.261,0.605,0.582S26.776,24.821,26.442,24.821z"/>
		</g>
		<g>
			<path fill="#FFFFFF" d="M18.873,29.963H3.641c-0.333,0-0.604-0.26-0.604-0.582c0-0.32,0.27-0.581,0.604-0.581h15.232
				c0.333,0,0.604,0.261,0.604,0.581C19.477,29.704,19.206,29.963,18.873,29.963z"/>
		</g>
	</g>
</g>
</svg>
