<?xml version="1.0" encoding="utf-8"?>
<!-- Generator: Adobe Illustrator 16.0.0, SVG Export Plug-In . SVG Version: 6.00 Build 0)  -->
<!DOCTYPE svg PUBLIC "-//W3C//DTD SVG 1.1//EN" "http://www.w3.org/Graphics/SVG/1.1/DTD/svg11.dtd">
<svg version="1.1" id="Layer_1" xmlns="http://www.w3.org/2000/svg" xmlns:xlink="http://www.w3.org/1999/xlink" x="0px" y="0px"
	 width="32.927px" height="38.443px" viewBox="0 0 32.927 38.443" enable-background="new 0 0 32.927 38.443" xml:space="preserve">
<g>
	<g>
		<path fill="#FFFFFF" d="M0.75,24.64c-0.156,0-0.31-0.048-0.439-0.141C0.116,24.358,0,24.131,0,23.89V3.001
			C0,2.76,0.116,2.533,0.311,2.393c0.196-0.142,0.447-0.18,0.675-0.104l31.426,10.445c0.308,0.102,0.515,0.389,0.515,0.712
			s-0.207,0.61-0.515,0.712L0.986,24.602C0.91,24.628,0.83,24.64,0.75,24.64z M1.5,4.041v18.81l28.296-9.405L1.5,4.041z"/>
	</g>
	<g>
		<path fill="#FFFFFF" d="M0.75,38.443c-0.415,0-0.75-0.336-0.75-0.75V0.75C0,0.335,0.335,0,0.75,0C1.165,0,1.5,0.335,1.5,0.75
			v36.943C1.5,38.107,1.165,38.443,0.75,38.443z"/>
	</g>
</g>
</svg>
