<?xml version="1.0" encoding="utf-8"?>
<!-- Generator: Adobe Illustrator 16.0.0, SVG Export Plug-In . SVG Version: 6.00 Build 0)  -->
<!DOCTYPE svg PUBLIC "-//W3C//DTD SVG 1.1//EN" "http://www.w3.org/Graphics/SVG/1.1/DTD/svg11.dtd">
<svg version="1.1" id="Layer_1" xmlns="http://www.w3.org/2000/svg" xmlns:xlink="http://www.w3.org/1999/xlink" x="0px" y="0px"
	 width="91.431px" height="30.183px" viewBox="0 0 91.431 30.183" enable-background="new 0 0 91.431 30.183" xml:space="preserve">
<g>
	<polygon fill="#464646" points="91.431,30.183 0.059,30.183 -0.059,15.563 91.431,15.563 	"/>
	<polygon fill="#605C57" points="91.491,15.563 0,15.563 14.148,0 77.342,0 	"/>
	<g>
		<g>
			<g>
				<rect x="3.528" y="19.09" fill="#D7DF23" width="2.235" height="3.413"/>
				<path fill="#353535" d="M5.237,19.615v2.362H4.053v-2.362H5.237 M6.288,18.564H5.237H4.053h-1.05v1.051v2.362v1.051h1.05h1.185
					h1.051v-1.051v-2.362V18.564L6.288,18.564z"/>
			</g>
		</g>
		<g>
			<g opacity="0.5">
				<rect x="4.053" y="24.287" fill="#FFFFFF" width="1.185" height="1.184"/>
			</g>
		</g>
		<g>
			<g opacity="0.5">
				<rect x="8.537" y="24.287" fill="#FFFFFF" width="1.184" height="1.184"/>
			</g>
		</g>
		<g>
			<g opacity="0.5">
				<rect x="13.021" y="24.287" fill="#FFFFFF" width="1.184" height="1.184"/>
			</g>
		</g>
		<g>
			<g opacity="0.5">
				<rect x="17.502" y="24.287" fill="#FFFFFF" width="1.185" height="1.184"/>
			</g>
		</g>
		<g>
			<g opacity="0.5">
				<rect x="21.986" y="24.287" fill="#FFFFFF" width="1.185" height="1.184"/>
			</g>
		</g>
		<g>
			<g opacity="0.5">
				<rect x="26.47" y="24.287" fill="#FFFFFF" width="1.183" height="1.184"/>
			</g>
		</g>
		<g>
			<g opacity="0.5">
				<rect x="30.953" y="24.287" fill="#FFFFFF" width="1.184" height="1.184"/>
			</g>
		</g>
		<g>
			<g opacity="0.5">
				<rect x="35.437" y="24.287" fill="#FFFFFF" width="1.185" height="1.184"/>
			</g>
		</g>
		<g>
			<g opacity="0.5">
				<rect x="39.92" y="24.287" fill="#FFFFFF" width="1.184" height="1.184"/>
			</g>
		</g>
		<g>
			<g opacity="0.5">
				<rect x="44.404" y="24.287" fill="#FFFFFF" width="1.184" height="1.184"/>
			</g>
		</g>
		<g>
			<g opacity="0.5">
				<rect x="48.887" y="24.287" fill="#FFFFFF" width="1.184" height="1.184"/>
			</g>
		</g>
		<g>
			<g opacity="0.5">
				<rect x="53.37" y="24.287" fill="#FFFFFF" width="1.184" height="1.184"/>
			</g>
		</g>
		<g>
			<g opacity="0.5">
				<rect x="57.853" y="24.287" fill="#FFFFFF" width="1.185" height="1.184"/>
			</g>
		</g>
		<g>
			<g opacity="0.5">
				<rect x="62.336" y="24.287" fill="#FFFFFF" width="1.185" height="1.184"/>
			</g>
		</g>
		<g>
			<g opacity="0.5">
				<rect x="66.821" y="24.287" fill="#FFFFFF" width="1.184" height="1.184"/>
			</g>
		</g>
		<g>
			<g opacity="0.5">
				<rect x="71.303" y="24.287" fill="#FFFFFF" width="1.185" height="1.184"/>
			</g>
		</g>
		<g>
			<rect x="8.012" y="19.09" fill="#D7DF23" width="2.235" height="3.413"/>
			<path fill="#353535" d="M9.721,19.615v2.362H8.537v-2.362H9.721 M10.771,18.564h-1.05H8.537H7.486v1.051v2.362v1.051h1.051h1.184
				h1.05v-1.051v-2.362V18.564L10.771,18.564z"/>
		</g>
		<g>
			<rect x="12.495" y="19.09" fill="#D7DF23" width="2.235" height="3.413"/>
			<path fill="#353535" d="M14.205,19.615v2.362h-1.184v-2.362H14.205 M15.254,18.564h-1.05h-1.184H11.97v1.051v2.362v1.051h1.051
				h1.184h1.05v-1.051v-2.362V18.564L15.254,18.564z"/>
		</g>
		<g>
			<rect x="16.977" y="19.09" fill="#D7DF23" width="2.235" height="3.413"/>
			<path fill="#353535" d="M18.687,19.615v2.362h-1.185v-2.362H18.687 M19.738,18.564h-1.051h-1.185h-1.051v1.051v2.362v1.051h1.051
				h1.185h1.051v-1.051v-2.362V18.564L19.738,18.564z"/>
		</g>
		<g>
			<rect x="21.46" y="19.09" fill="#D7DF23" width="2.235" height="3.413"/>
			<path fill="#353535" d="M23.171,19.615v2.362h-1.185v-2.362H23.171 M24.221,18.564h-1.05h-1.185h-1.05v1.051v2.362v1.051h1.05
				h1.185h1.05v-1.051v-2.362V18.564L24.221,18.564z"/>
		</g>
		<g>
			<rect x="25.945" y="19.09" fill="#232322" width="2.234" height="3.413"/>
			<g>
				<path fill="#353535" d="M27.653,19.615v2.362H26.47v-2.362H27.653 M28.704,18.564h-1.051H26.47h-1.051v1.051v2.362v1.051h1.051
					h1.183h1.051v-1.051v-2.362V18.564L28.704,18.564z"/>
			</g>
		</g>
		<g>
			<rect x="30.428" y="19.09" fill="#D7DF23" width="2.235" height="3.413"/>
			<path fill="#353535" d="M32.137,19.615v2.362h-1.184v-2.362H32.137 M33.188,18.564h-1.05h-1.184h-1.051v1.051v2.362v1.051h1.051
				h1.184h1.05v-1.051v-2.362V18.564L33.188,18.564z"/>
		</g>
		<g>
			<rect x="34.911" y="19.09" fill="#232322" width="2.235" height="3.413"/>
			<g>
				<path fill="#353535" d="M36.622,19.615v2.362h-1.185v-2.362H36.622 M37.671,18.564h-1.05h-1.185h-1.051v1.051v2.362v1.051h1.051
					h1.185h1.05v-1.051v-2.362V18.564L37.671,18.564z"/>
			</g>
		</g>
		<g>
			<rect x="39.395" y="19.09" fill="#D7DF23" width="2.235" height="3.413"/>
			<path fill="#353535" d="M41.104,19.615v2.362H39.92v-2.362H41.104 M42.155,18.564h-1.051H39.92h-1.05v1.051v2.362v1.051h1.05
				h1.184h1.051v-1.051v-2.362V18.564L42.155,18.564z"/>
		</g>
		<g>
			<rect x="43.878" y="19.09" fill="#D7DF23" width="2.234" height="3.413"/>
			<path fill="#353535" d="M45.587,19.615v2.362h-1.184v-2.362H45.587 M46.637,18.564h-1.05h-1.184h-1.051v1.051v2.362v1.051h1.051
				h1.184h1.05v-1.051v-2.362V18.564L46.637,18.564z"/>
		</g>
		<g>
			<rect x="48.362" y="19.09" fill="#D7DF23" width="2.234" height="3.413"/>
			<path fill="#353535" d="M50.071,19.615v2.362h-1.184v-2.362H50.071 M51.122,18.564h-1.051h-1.184h-1.051v1.051v2.362v1.051h1.051
				h1.184h1.051v-1.051v-2.362V18.564L51.122,18.564z"/>
		</g>
		<g>
			<rect x="52.845" y="19.09" fill="#D7DF23" width="2.233" height="3.413"/>
			<path fill="#353535" d="M54.553,19.615v2.362H53.37v-2.362H54.553 M55.604,18.564h-1.051H53.37h-1.05v1.051v2.362v1.051h1.05
				h1.184h1.051v-1.051v-2.362V18.564L55.604,18.564z"/>
		</g>
		<g>
			<rect x="57.329" y="19.09" fill="#232322" width="2.234" height="3.413"/>
			<g>
				<path fill="#353535" d="M59.038,19.615v2.362h-1.185v-2.362H59.038 M60.088,18.564h-1.051h-1.185h-1.05v1.051v2.362v1.051h1.05
					h1.185h1.051v-1.051v-2.362V18.564L60.088,18.564z"/>
			</g>
		</g>
		<g>
			<rect x="61.811" y="19.09" fill="#232322" width="2.235" height="3.413"/>
			<g>
				<path fill="#353535" d="M63.521,19.615v2.362h-1.185v-2.362H63.521 M64.572,18.564h-1.051h-1.185h-1.049v1.051v2.362v1.051
					h1.049h1.185h1.051v-1.051v-2.362V18.564L64.572,18.564z"/>
			</g>
		</g>
		<g>
			<rect x="66.295" y="19.09" fill="#D7DF23" width="2.234" height="3.413"/>
			<path fill="#353535" d="M68.004,19.615v2.362h-1.184v-2.362H68.004 M69.055,18.564h-1.051h-1.184H65.77v1.051v2.362v1.051h1.051
				h1.184h1.051v-1.051v-2.362V18.564L69.055,18.564z"/>
		</g>
		<g>
			<g>
				<rect x="70.778" y="19.09" fill="#D7DF23" width="2.235" height="3.413"/>
				<path fill="#353535" d="M72.488,19.615v2.362h-1.185v-2.362H72.488 M73.539,18.564h-1.051h-1.185h-1.051v1.051v2.362v1.051
					h1.051h1.185h1.051v-1.051v-2.362V18.564L73.539,18.564z"/>
			</g>
		</g>
	</g>
	<g>
		
			<line fill="none" stroke="#282625" stroke-width="1.0712" stroke-miterlimit="10" x1="15.091" y1="2.358" x2="76.399" y2="2.358"/>
		
			<line fill="none" stroke="#282625" stroke-width="1.0712" stroke-miterlimit="10" x1="13.853" y1="3.744" x2="77.637" y2="3.744"/>
		
			<line fill="none" stroke="#282625" stroke-width="1.0712" stroke-miterlimit="10" x1="12.615" y1="5.128" x2="78.875" y2="5.128"/>
		
			<line fill="none" stroke="#282625" stroke-width="1.0712" stroke-miterlimit="10" x1="11.377" y1="6.514" x2="80.113" y2="6.514"/>
		
			<line fill="none" stroke="#282625" stroke-width="1.0712" stroke-miterlimit="10" x1="10.139" y1="7.899" x2="81.351" y2="7.899"/>
		<line fill="none" stroke="#282625" stroke-width="1.0712" stroke-miterlimit="10" x1="8.901" y1="9.284" x2="82.589" y2="9.284"/>
		<line fill="none" stroke="#282625" stroke-width="1.0712" stroke-miterlimit="10" x1="7.663" y1="10.67" x2="83.827" y2="10.67"/>
		
			<line fill="none" stroke="#282625" stroke-width="1.0712" stroke-miterlimit="10" x1="6.425" y1="12.055" x2="85.065" y2="12.055"/>
		<line fill="none" stroke="#282625" stroke-width="1.0712" stroke-miterlimit="10" x1="5.188" y1="13.44" x2="86.303" y2="13.44"/>
	</g>
	<polygon fill="#605C57" points="81.468,15.563 10.021,15.563 21.069,0 70.42,0 	"/>
</g>
</svg>
