<?xml version="1.0" encoding="utf-8"?>
<!-- Generator: Adobe Illustrator 16.0.0, SVG Export Plug-In . SVG Version: 6.00 Build 0)  -->
<!DOCTYPE svg PUBLIC "-//W3C//DTD SVG 1.1//EN" "http://www.w3.org/Graphics/SVG/1.1/DTD/svg11.dtd">
<svg version="1.1" id="Layer_1" xmlns="http://www.w3.org/2000/svg" xmlns:xlink="http://www.w3.org/1999/xlink" x="0px" y="0px"
	 width="25.068px" height="39.13px" viewBox="0 0 25.068 39.13" enable-background="new 0 0 25.068 39.13" xml:space="preserve">
<g>
	<g>
		<path fill="#FFFFFF" d="M12.32,39.684c-0.096,0-0.191-0.021-0.281-0.063L0.373,34.068c-0.261-0.123-0.409-0.404-0.365-0.69
			c0.026-0.168,0.662-4.149,2.584-8.065c0.781-1.588,1.671-2.95,2.646-4.047c0.24-0.27,0.653-0.294,0.924-0.055
			c0.269,0.241,0.293,0.654,0.053,0.924c-0.897,1.008-1.721,2.271-2.449,3.754c-1.459,2.975-2.154,6.057-2.379,7.214l10.938,5.206
			L23.67,33.1c-0.404-1.871-2.096-8.614-6.104-11.999c-0.275-0.233-0.311-0.646-0.077-0.922c0.232-0.276,0.646-0.311,0.921-0.078
			c5.025,4.243,6.584,12.899,6.647,13.265c0.051,0.293-0.102,0.583-0.372,0.707l-12.092,5.553
			C12.507,39.664,12.414,39.684,12.32,39.684z"/>
	</g>
	<g>
		<path fill="#FFFFFF" d="M12.32,20.824c-3.401,0-6.308-3.861-7.421-7.675c-0.102-0.346,0.098-0.71,0.444-0.811
			c0.347-0.102,0.71,0.098,0.811,0.445c0.954,3.264,3.438,6.733,6.166,6.733c3.51,0,6.417-5.521,6.588-9.103
			c0.017-0.36,0.315-0.639,0.684-0.622c0.361,0.018,0.64,0.324,0.622,0.685C20.016,14.596,16.768,20.824,12.32,20.824z"/>
	</g>
	<g>
		<path fill="#FFFFFF" d="M4.053,13.791c-0.279,0-0.529-0.178-0.619-0.445c-0.271-0.802-0.561-2.188-0.561-3.667
			C2.873,4.342,7.213,0,12.547,0c5.049,0,9.287,3.944,9.645,8.981c0.01,0.117-0.014,0.235-0.067,0.34
			c-1.009,2.008-5.501,2.532-6.01,2.585c-0.215,0.023-0.427-0.062-0.566-0.226c-0.14-0.164-0.189-0.386-0.134-0.594
			c0.002-0.006,0.172-0.661,0.266-1.869c-0.033,0.028-0.064,0.056-0.096,0.084c-2.729,2.38-8.322,4.333-11.5,4.488
			C4.074,13.791,4.063,13.791,4.053,13.791z M12.547,1.308c-4.613,0-8.365,3.755-8.365,8.371c0,1.052,0.167,2.059,0.349,2.766
			c2.979-0.311,7.841-2.076,10.193-4.128c0.535-0.466,0.894-0.908,1.065-1.312c0.121-0.285,0.426-0.445,0.728-0.386
			c0.304,0.06,0.523,0.324,0.528,0.633c0.008,0.604-0.006,1.198-0.041,1.764c-0.037,0.597-0.093,1.089-0.148,1.468
			c1.584-0.271,3.459-0.85,4.015-1.611C20.463,4.614,16.846,1.308,12.547,1.308z"/>
	</g>
</g>
</svg>
